<?xml version="1.0" encoding="UTF-8"?>
<svg id="Layer_2" data-name="Layer 2" xmlns="http://www.w3.org/2000/svg" viewBox="0 0 1079.35 473.46">
  <defs>
    <style>
      .cls-1 {
        fill: #1d312a;
      }
    </style>
  </defs>
  <g id="Layer_1-2" data-name="Layer 1">
    <g>
      <g>
        <path class="cls-1" d="M416.8,107.74h19.97c19.21,27.98,38.27,55.51,57.48,85.01h.3v-85.01h19.06v117.98h-19.97c-18.91-27.68-38.27-54.6-57.48-83.65h-.3v83.65h-19.06v-117.98Z"/>
        <path class="cls-1" d="M522.19,183.97c0-25.87,17.39-44.77,41.9-44.77,19.51,0,39.93,12.25,39.93,44.02v5.29h-63.68c1.36,14.97,11.8,23.75,24.96,23.75,10.44,0,18.6-6.2,22.54-15.88l16.79,6.66c-5.75,14.82-20.27,25.26-39.33,25.26-24.66,0-43.11-17.55-43.11-44.32ZM585.87,175.65c-1.21-15.28-11.5-21.02-21.93-21.02-12.4,0-20.57,8.62-22.69,21.02h44.62Z"/>
        <path class="cls-1" d="M605.71,141.62h20.42c6.35,20.27,13.01,40.54,19.36,60.81h.45c6.81-20.27,13.76-40.54,20.57-60.81h16.18c6.81,20.27,13.76,40.54,20.57,60.81h.3c6.5-20.27,13.16-40.54,19.51-60.81h20.27l-28.59,84.1h-21.33c-6.35-19.06-12.71-38.72-18.76-57.93h-.15c-6.2,19.21-12.86,38.87-19.51,57.93h-20.72l-28.59-84.1Z"/>
        <path class="cls-1" d="M766.67,199.4v-41.6h-16.64v-16.18h16.64v-24.2h18v24.2h23.6v16.18h-23.6v35.4c0,8.32,0,18.76,11.5,18.76,3.93,0,8.17-1.21,12.1-3.33v16.18c-4.24,2.42-9.98,3.48-15.58,3.48-26.02,0-26.02-19.97-26.02-28.89Z"/>
        <path class="cls-1" d="M816.92,183.82c0-26.17,17.7-44.62,43.11-44.62s42.96,18.45,42.96,44.62-17.55,44.47-42.96,44.47-43.11-18.3-43.11-44.47ZM860.03,211.35c14.37,0,24.35-11.5,24.35-27.53s-9.98-27.68-24.35-27.68-24.35,11.5-24.35,27.68,9.98,27.53,24.35,27.53Z"/>
        <path class="cls-1" d="M912.12,141.62h17.55v13.46h.3c6.35-11.04,16.49-15.88,27.23-15.88,15.28,0,29.8,9.83,29.8,33.58v52.94h-18v-45.08c0-13.92-5.14-24.5-18-24.5-12.1,0-21.03,9.38-21.03,25.11v44.47h-17.85v-84.1Z"/>
        <path class="cls-1" d="M1010.98,204.69l16.64-5.45c3.93,9.83,12.1,14.22,19.36,14.22,5.6,0,13.31-2.42,13.31-10.13,0-7.11-6.96-9.23-13.46-11.19l-8.77-2.57c-9.68-2.87-23.14-8.92-23.14-24.81s13.92-25.56,30.55-25.56,27.83,9.08,31.46,21.03l-16.64,5.45c-2.27-6.2-7.11-11.8-15.58-11.8-6.81,0-11.8,3.78-11.8,9.53,0,7.56,9.08,10.44,16.19,12.4l6.96,1.97c8.32,2.42,23.29,6.81,23.29,23.75,0,15.88-12.71,26.77-32.22,26.77-18.45,0-31.92-9.53-36.15-23.6Z"/>
        <path class="cls-1" d="M1002.53,140.02l-3.68,1.59-1.59-3.68c-6.63-15.32.42-33.1,15.74-39.73l3.68-1.59,1.59,3.68c6.63,15.32-.42,33.1-15.74,39.73Z"/>
      </g>
      <g>
        <path class="cls-1" d="M162.29,336.61c.17,11.52-4.34,23.81-13.85,30.85-7.61,5.34-17.17,7.19-25.96,9.59-4.2,1.1-7.81,3.43-11.29,5.96-1.63,1.22-3.04,2.8-4.35,4.52-4.96,6.47-9.72,18.93-20.19,16.08,7.64.52,11.02-6.05,13.96-12,2.17-4.16,4.46-8.44,8.23-11.55,3.66-3.03,7.87-5.65,12.48-6.95,2.28-.69,4.51-1.13,6.67-1.68,6.3-1.77,12.9-3.24,18.44-6.82,9.32-6.14,14.07-17.21,15.84-27.99h0Z"/>
        <path class="cls-1" d="M130.33,434.99c-3.18-10.77-5.41-23.93.1-34.35,7.51-10.53,9.86-17.88,8.49-31,0,0,4.11-.41,4.11-.41,1.15,8.83-.09,18.34-4.97,25.97-1.41,2.47-3.39,4.74-5.02,7.03-5.71,9.3-4.37,22.37-2.7,32.75h0Z"/>
        <path class="cls-1" d="M154.06,360.85c17.61,39.53-14.58,49.06-6.84,71.04,4.94,13.91,13.32,29.55-.38,41.57,3.37-3.52,5.84-8.02,6.19-12.91.73-9.99-4.86-18.67-8.23-27.82-.86-2.37-1.65-4.85-1.77-7.6-.29-7.77,4.02-14.94,7.11-21.54,7.19-14.08,6.57-26.84.17-41.05,0,0,3.77-1.69,3.77-1.69h0Z"/>
        <path class="cls-1" d="M174.82,336.61c1.77,10.78,6.53,21.85,15.84,27.99,5.54,3.58,12.15,5.06,18.44,6.83,2.17.55,4.39.99,6.67,1.68,4.61,1.3,8.82,3.92,12.48,6.95,3.77,3.11,6.06,7.39,8.23,11.55,2.92,5.93,6.35,12.52,13.96,12-10.48,2.85-15.23-9.6-20.19-16.08-1.31-1.72-2.72-3.3-4.35-4.52-3.48-2.53-7.09-4.86-11.29-5.96-8.79-2.4-18.34-4.24-25.96-9.59-9.51-7.04-14.02-19.32-13.85-30.85h0Z"/>
        <path class="cls-1" d="M206.79,434.99c1.67-10.36,3.01-23.47-2.7-32.75-1.63-2.3-3.61-4.57-5.02-7.03-4.88-7.63-6.12-17.14-4.97-25.97,0,0,4.11.41,4.11.41-1.38,13.13.98,20.47,8.49,31,5.51,10.42,3.28,23.57.1,34.35h0Z"/>
        <path class="cls-1" d="M186.83,362.53c-6.41,14.21-7.02,26.98.17,41.05,3.09,6.6,7.4,13.77,7.11,21.54-.64,7.72-5.01,14.27-7.44,21.29-3.86,9.56-4.04,19.33,3.62,27.04-8.59-7.32-8.83-17.66-5.45-27.67,2.05-6.96,6.03-13.52,6.39-20.71-.1-7.31-4.14-13.39-7.41-19.93-2.32-4.5-4.33-9.28-5.29-14.31-2.1-10.14.34-20.74,4.54-29.99,0,0,3.77,1.69,3.77,1.69h0Z"/>
        <path class="cls-1" d="M215.07,345.25c-.06,0-.12-.01-.19-.01l.13-.07s.03.05.05.08Z"/>
        <path class="cls-1" d="M234.04,157.23c6.55-13.19,12.02-26.92,17.95-40.45-1.77,5.66-3.64,11.27-5.63,16.86-2.97,8.41-6,16.75-9.73,24.9-4.62,9.23-11.5,22.48-16.41,31.57-4.56,7.79-9.77,14.93-14.81,22.35-2.61,3.69-5.07,7.4-7.96,10.92-6.34,7.39-13.5,14.41-20.38,21.28.95-10.41,1.72-21.11,2.44-31.56.89-16.18,1.7-32.66-1.51-48.62-3.46-16.09-6.5-32.29-8.91-48.58-1.29-8.12-2.43-16.47-1.8-24.71.28-15.61,7.36-30.13,16.64-42.43-.71.67-1.41,1.34-2.11,2.04-4.43,4.35-8.04,9.49-10.54,15.17-9.67,21.2-5.82,62.19-5.03,86.21.83,11.47.99,22.98.71,34.47-1.38,17.81-4.62,35.33-8.03,52.75l-.81,4.11-3.29-2.59c-3.41-2.78-20.45-16.46-23.54-19.03-5.13-4.41-13.24-11.4-18.37-15.81-7.1-6.22-18.59-16.88-27.05-24.61,7.17,8.26,14.22,16.7,21.53,24.77,12.83,13.63,45.26,43.26,48.59,60.66,1.56,8.25,1.48,16.31,1.69,24.46.45,11.46-1.17,22.88-2.9,34.14-.52,3.21-1.08,6.41-1.71,9.61-.76,3.6-1.14,7.23-3.52,10.33-4.78,6.31-13.83,5.88-20.68,5.46-1.49-.06-2.93-.18-4.36-.27-7.88,11.66-19.57,21.52-33.73,23.91-2.57.45-5.45.49-8.06.61-12.97.68-21.98,7.19-16.29,20.96l-.63.33c-4.92-9.58-1.86-18.81,8.65-22.21,5.07-1.93,10.53-1.75,15.73-2.85,11.6-2.64,21.15-10.99,27.72-20.79-.82.07-1.64.19-2.47.36-1.21.3-2.81,1.09-4.06,1.62-4.53,1.95-9.06,4.36-14.12,5.42-8.01,1.45-16.93-1.33-24.75-2.54-2.29-.34-4.56-.81-6.85-.81-3.81.33-7.41,1.94-11.03,3.43-5.83,2.54-11.54,5.52-17.06,8.75l-.99-1.63c8.44-4.94,16.77-10.15,26.24-13.03,3.26-.99,6.82-.41,10.15-.13,9.17.79,18.61,2.8,27.34-.82,6.12-2.31,12.09-6.84,18.98-6.79,7.12-.7,20.7,2.93,25.4-2.7,1.61-2.12,1.85-5.22,2.52-7.83.67-3.11,1.29-6.24,1.85-9.37,1.13-6.29,2.11-12.6,2.77-18.91.76-6.23.77-12.76.73-19.02.01-6.38-.02-12.8-1.03-18.84-1.04-6.17-4.71-11.2-8.08-16.33-7.35-10.63-16.04-20.15-24.79-29.6h-.01c-21.27-13.13-72.1-23.17-92.02-45.44,10.57,11.41,38.05,17.92,59.54,23.01,7.36,1.75,12.81,3.38,17.98,6.44-1.58-1.81-3.13-3.64-4.65-5.5-5.82-7.24-12.34-15.35-17.91-22.74-.01-.01-.02-.03-.03-.04,0-.01.46-.44.46-.45.01.01.03.02.04.04,8.81,7.29,23.69,20.13,32.43,27.08,5.32,4.14,13.74,10.68,19.06,14.81,2.51,1.87,14.79,10.79,21.16,15.41,3.48-15.88,6.7-31.88,8.35-47.98-5.13-29.42-12.43-49.4-33.39-70.88-4.91-4.94-10.24-9.45-15.91-13.5,5.93,4.01,38.65,18.41,49.65,57.77-.6-23.29-1.79-46.84.71-70.04,1.25-12.46,4.72-25.16,12.97-34.86,2.64-3.23,5.86-5.93,8.85-8.81h.01s.32.27.33.27t-.01.02s-.01.01-.02.02c-9.79,12.94-17.45,28.3-17.34,44.8-.42,8.25.89,16.22,2.35,24.3,1.38,8.08,2.93,16.15,4.6,24.18,2.06,11.09,5.47,21.94,7.06,33.1,9.87-42.44,45.27-66.61,51.38-70.75-5.67,4.06-10.99,8.56-15.9,13.5-20.97,21.48-28.96,47.95-34.08,77.38v-.04c.13,6.81-.01,13.64-.28,20.44-.26,5.96-.54,11.9-.86,17.87,4.6-4.59,9.17-9.2,13.13-14.38,6.95-9.39,14.06-18.95,20.39-28.74,5.14-8.83,12.44-21.9,17.31-30.88Z"/>
        <path class="cls-1" d="M183.4,286.86c-.69,14.08.07,28.41,3.54,42.11,1.41,5.85,4.32,13.01,9.58,15.88,2.38,1.27,5.52,1.22,9.04.88,2.89-.28,6.06-.65,9.31-.49.06,0,.12.01.19.01.62.04,1.24.09,1.86.18,7.33,1.08,13.85,5.13,20.85,7.03,3.24.95,6.59,1.66,9.93,1.5,3.36-.2,6.92-.88,10.49-1.42,4.46-.64,9.27-1.55,13.93-.77,9.05,1.83,17.02,6.93,24.52,12.08l1.1.81.55.4.27.21.13.1s.13.09.06.05l-.67,1.21-1.17-.83-1.1-.75c-5.17-3.47-10.7-6.58-16.52-8.74-3.25-1.16-6.61-2.15-10.08-2.08-7.17.24-13.9,3.05-21.21,3.8-7.73.65-14.93-2.16-21.91-4.7-2.51-.91-4.94-1.94-7.49-2.48,6.51,9.18,15.69,16.87,26.74,19.38,5.2,1.09,10.66.91,15.73,2.84,10.51,3.4,13.58,12.64,8.65,22.22l-.63-.33c5.69-13.77-3.32-20.29-16.29-20.96-2.61-.13-5.49-.15-8.06-.62-13.72-2.3-25.14-11.64-33-22.85-3.73.31-7.58,1.16-11.41,1.04-6.67.02-12.06-4.74-15-10.33-1.99-3.33-3.15-7.15-4.04-10.85-1.7-7.22-2.8-14.49-3.24-21.88-.62-12.84-.51-25.85,2.28-38.47,2.27-8.99,6.26-17.51,10.82-25.45,3.72-6.36,7.68-12.45,12.31-18.21,4.58-5.89,10.96-10.86,18.17-13.22,17.06-6.13,36.66,5.82,53.45,8.96,6.98,1.55,13.96,1.51,20.94.06,1.93-.37,3.86-.82,5.77-1.32-5.33.6-10.76.34-16.05-.59-3.45-.6-6.85-1.46-10.2-2.48-5.78-1.85-13.59-5.84-19.12-8.47-9.26-4.45-19.42-6.47-29.28-9.28l-3.18-.85,1.65-2.9c3.41-5.83,5.83-12.52,8.19-18.94,4.69-13.24,9.59-26.39,12.98-40.1,1.81-6.8,3.55-13.64,5.21-20.47-2.61,13.9-5.06,27.73-8.69,41.44-2.08,6.76-3.85,13.51-5.83,20.33-1.78,5.94-3.49,11.78-6.03,17.47,3.88,1.27,7.75,2.56,11.61,3.91h.01c27.1,3.42,65.78-27.72,70.29-33.49-4.42,5.99-23.15,29.71-50.79,38.29-2.73.85-3.49,1.17-4.73,1.45,3.26,1.75,6.47,3.62,9.24,5.06,11.93,6.6,25.76,10.29,39.39,8.24l1.83-.25c-3.76,2.02-7.7,3.69-11.82,4.83-18.05,5.83-35.97-3.82-53.27-7.56-3.46-.74-6.93-1.25-10.4-1.35-6.67-.22-13.46,2.64-18.76,6.64-8.13,6.59-13.38,16.24-18.71,25.17-4.3,7.71-7.96,15.75-10.03,24.27-1.16,5.1-1.59,10.4-1.91,15.64Z"/>
        <path class="cls-1" d="M192.03,41.63l-3.53,1.53-1.53-3.53c-6.35-14.69.4-31.74,15.09-38.1l3.53-1.53,1.53,3.53c6.35,14.69-.4,31.74-15.09,38.1Z"/>
        <path class="cls-1" d="M239.35,96.88l-3.53,1.53-1.53-3.53c-6.35-14.69.4-31.74,15.09-38.1l3.53-1.53,1.53,3.53c6.35,14.69-.4,31.74-15.09,38.1Z"/>
        <path class="cls-1" d="M318.87,162.39l-3.78.71-.71-3.78c-2.94-15.73,7.43-30.87,23.16-33.8l3.78-.71.71,3.78c2.94,15.73-7.43,30.87-23.16,33.8Z"/>
        <path class="cls-1" d="M315.78,219.09l-3.71-1,1-3.71c4.16-15.45,20.07-24.6,35.52-20.44l3.71,1-1,3.71c-4.16,15.45-20.07,24.6-35.52,20.44Z"/>
        <path class="cls-1" d="M113.4,95.29l-1.61,3.49-3.49-1.61c-14.54-6.69-20.89-23.9-14.2-38.44l1.61-3.49,3.49,1.61c14.54,6.69,20.89,23.9,14.2,38.44Z"/>
        <path class="cls-1" d="M26.24,169.08l-.99,3.72-3.72-.99c-15.46-4.12-24.67-19.99-20.55-35.45l.99-3.72,3.72.99c15.46,4.12,24.67,19.99,20.55,35.45Z"/>
        <path class="cls-1" d="M234.04,157.23c6.55-13.19,12.02-26.92,17.95-40.45-1.77,5.66-3.64,11.27-5.63,16.86-2.97,8.41-6,16.75-9.73,24.9-4.62,9.23-11.5,22.48-16.41,31.57-4.56,7.79-9.77,14.93-14.81,22.35-2.61,3.69-5.07,7.4-7.96,10.92-6.34,7.39-13.5,14.41-20.38,21.28.95-10.41,1.72-21.11,2.44-31.56.89-16.18,1.7-32.66-1.51-48.62-3.46-16.09-6.5-32.29-8.91-48.58-1.29-8.12-2.43-16.47-1.8-24.71.28-15.61,7.36-30.13,16.64-42.43-.71.67-1.41,1.34-2.11,2.04-4.43,4.35-8.04,9.49-10.54,15.17-9.67,21.2-5.82,62.19-5.03,86.21.83,11.47.99,22.98.71,34.47-1.38,17.81-4.62,35.33-8.03,52.75l-.81,4.11-3.29-2.59c-3.41-2.78-20.45-16.46-23.54-19.03-5.13-4.41-13.24-11.4-18.37-15.81-7.1-6.22-18.59-16.88-27.05-24.61,7.17,8.26,14.22,16.7,21.53,24.77,12.83,13.63,45.26,43.26,48.59,60.66,1.56,8.25,1.48,16.31,1.69,24.46.45,11.46-1.17,22.88-2.9,34.14-.52,3.21-1.08,6.41-1.71,9.61-.76,3.6-1.14,7.23-3.52,10.33-4.78,6.31-13.83,5.88-20.68,5.46-1.49-.06-2.93-.18-4.36-.27-7.88,11.66-19.57,21.52-33.73,23.91-2.57.45-5.45.49-8.06.61-12.97.68-21.98,7.19-16.29,20.96l-.63.33c-4.92-9.58-1.86-18.81,8.65-22.21,5.07-1.93,10.53-1.75,15.73-2.85,11.6-2.64,21.15-10.99,27.72-20.79-.82.07-1.64.19-2.47.36-1.21.3-2.81,1.09-4.06,1.62-4.53,1.95-9.06,4.36-14.12,5.42-8.01,1.45-16.93-1.33-24.75-2.54-2.29-.34-4.56-.81-6.85-.81-3.81.33-7.41,1.94-11.03,3.43-5.83,2.54-11.54,5.52-17.06,8.75l-.99-1.63c8.44-4.94,16.77-10.15,26.24-13.03,3.26-.99,6.82-.41,10.15-.13,9.17.79,18.61,2.8,27.34-.82,6.12-2.31,12.09-6.84,18.98-6.79,7.12-.7,20.7,2.93,25.4-2.7,1.61-2.12,1.85-5.22,2.52-7.83.67-3.11,1.29-6.24,1.85-9.37,1.13-6.29,2.11-12.6,2.77-18.91.76-6.23.77-12.76.73-19.02.01-6.38-.02-12.8-1.03-18.84-1.04-6.17-4.71-11.2-8.08-16.33-7.35-10.63-16.04-20.15-24.79-29.6h-.01c-21.27-13.13-72.1-23.17-92.02-45.44,10.57,11.41,38.05,17.92,59.54,23.01,7.36,1.75,12.81,3.38,17.98,6.44-1.58-1.81-3.13-3.64-4.65-5.5-5.82-7.24-12.34-15.35-17.91-22.74-.01-.01-.02-.03-.03-.04,0-.01.46-.44.46-.45.01.01.03.02.04.04,8.81,7.29,23.69,20.13,32.43,27.08,5.32,4.14,13.74,10.68,19.06,14.81,2.51,1.87,14.79,10.79,21.16,15.41,3.48-15.88,6.7-31.88,8.35-47.98-5.13-29.42-12.43-49.4-33.39-70.88-4.91-4.94-10.24-9.45-15.91-13.5,5.93,4.01,38.65,18.41,49.65,57.77-.6-23.29-1.79-46.84.71-70.04,1.25-12.46,4.72-25.16,12.97-34.86,2.64-3.23,5.86-5.93,8.85-8.81h.01s.32.27.33.27t-.01.02s-.01.01-.02.02c-9.79,12.94-17.45,28.3-17.34,44.8-.42,8.25.89,16.22,2.35,24.3,1.38,8.08,2.93,16.15,4.6,24.18,2.06,11.09,5.47,21.94,7.06,33.1,9.87-42.44,45.27-66.61,51.38-70.75-5.67,4.06-10.99,8.56-15.9,13.5-20.97,21.48-28.96,47.95-34.08,77.38v-.04c.13,6.81-.01,13.64-.28,20.44-.26,5.96-.54,11.9-.86,17.87,4.6-4.59,9.17-9.2,13.13-14.38,6.95-9.39,14.06-18.95,20.39-28.74,5.14-8.83,12.44-21.9,17.31-30.88Z"/>
        <path class="cls-1" d="M161.81,79.98c.88-5.06,2.22-10.05,4.16-14.77-2.97-10.86-12.16-19.44-24.02-21.07l-3.81-.52-.52,3.81c-2.15,15.66,8.65,30.1,24.19,32.55Z"/>
        <path class="cls-1" d="M176.37,71.49c-1.92,5.8-3.04,11.83-3.09,18.03,15.51,2.81,30.47-7.3,33.58-22.82l.75-3.77-3.77-.75c-10.53-2.11-20.86,1.79-27.47,9.32Z"/>
        <path class="cls-1" d="M121.1,160.47l-3.35,1.89,1.89,3.35c7.54,13.34,24.06,18.4,37.68,11.9-1.02-4.98-2.15-9.7-3.45-14.2-8.99-7.46-22-9.03-32.77-2.94Z"/>
        <path class="cls-1" d="M133.3,125.56c-2.52-3.12-5.29-6.23-8.36-9.37-1.21-1.22-2.45-2.42-3.72-3.58-9.99-2.39-20.94.62-28.3,8.79l-2.57,2.86,2.86,2.57c11.59,10.44,29.29,9.79,40.09-1.26Z"/>
        <path class="cls-1" d="M214.69,141.2l-3.18-2.17-2.17,3.18c-8.75,12.85-5.77,30.23,6.53,39.47,3.5-6.08,7.62-13.43,11.26-20.01-.97-8.01-5.26-15.57-12.45-20.47Z"/>
        <path class="cls-1" d="M66.64,190.35c5.82-14.27-.57-30.73-14.71-37.25l-3.49-1.61-1.61,3.49c-4.81,10.44-2.88,22.26,3.97,30.57,5.06,1.76,10.44,3.34,15.85,4.79Z"/>
        <path class="cls-1" d="M85.56,211.68c-5.95-2.21-12.12-4.49-18.22-6.92-9,3.11-16.29,10.57-18.72,20.51l-.91,3.74,3.74.91c14.51,3.55,29.14-4.51,34.11-18.24Z"/>
        <path class="cls-1" d="M250.5,144.88l2.97-.04c16-.24,28.78-13.41,28.53-29.41l-.06-3.85-3.85.06c-9.79.15-18.37,5.14-23.5,12.66-1.29,6.88-2.6,13.74-4.09,20.58Z"/>
        <path class="cls-1" d="M285.24,183.05c5.58-11.13,3.51-25.04-6-34.03l-2.79-2.64-2.64,2.79c-10.61,11.21-10.5,28.67-.05,39.76,3.94-1.76,7.8-3.77,11.48-5.88Z"/>
        <path class="cls-1" d="M251.75,250.83l3.77.75.75-3.77c1.93-9.76-1.28-19.33-7.75-25.94-1.96-.54-3.9-1.03-5.84-1.45-3.46-.74-6.93-1.25-10.4-1.35-1.23-.04-2.46.03-3.69.18-1.64,14.8,8.29,28.64,23.16,31.58Z"/>
      </g>
      <path class="cls-1" d="M416.8,265.28v-17.55h96.81v17.55h-38.95v100.44h-19.06v-100.44h-38.8Z"/>
      <path class="cls-1" d="M511.61,281.62h17.55v14.22h.61c4.24-9.23,13.16-16.64,24.81-16.64,2.72,0,5.45.3,8.47,1.51v19.97c-3.18-1.21-7.56-1.66-10.29-1.66-19.06,0-23.29,18-23.29,31.77v34.94h-17.85v-84.1Z"/>
      <path class="cls-1" d="M567.92,323.97c0-25.87,17.39-44.77,41.9-44.77,19.51,0,39.93,12.25,39.93,44.02v5.29h-63.68c1.36,14.97,11.8,23.75,24.96,23.75,10.44,0,18.6-6.2,22.54-15.88l16.79,6.66c-5.75,14.82-20.27,25.26-39.33,25.26-24.66,0-43.11-17.55-43.11-44.32ZM631.6,315.65c-1.21-15.28-11.5-21.02-21.93-21.02-12.4,0-20.57,8.62-22.69,21.02h44.62Z"/>
      <path class="cls-1" d="M658.59,323.97c0-25.87,17.39-44.77,41.9-44.77,19.51,0,39.93,12.25,39.93,44.02v5.29h-63.68c1.36,14.97,11.8,23.75,24.96,23.75,10.44,0,18.6-6.2,22.54-15.88l16.79,6.66c-5.75,14.82-20.27,25.26-39.33,25.26-24.66,0-43.11-17.55-43.11-44.32ZM722.27,315.65c-1.21-15.28-11.5-21.02-21.93-21.02-12.4,0-20.57,8.62-22.69,21.02h44.62Z"/>
    </g>
  </g>
</svg>